<?xml version="1.0" standalone="no"?>
<!DOCTYPE svg PUBLIC "-//W3C//DTD SVG 20010904//EN"
 "http://www.w3.org/TR/2001/REC-SVG-20010904/DTD/svg10.dtd">
<svg version="1.0" xmlns="http://www.w3.org/2000/svg"
 width="1377.000000pt" height="1377.000000pt" viewBox="0 0 1377.000000 1377.000000"
 preserveAspectRatio="xMidYMid meet">
<metadata>
Created by potrace 1.14, written by Peter Selinger 2001-2017
</metadata>
<g transform="translate(0.000000,1377.000000) scale(0.100000,-0.100000)"
fill="#000000" stroke="none">
<path d="M4604 9444 c-324 -40 -566 -113 -874 -263 -36 -17 -72 -36 -80 -41
-8 -5 -58 -35 -110 -66 -173 -105 -330 -231 -491 -395 -461 -472 -724 -1122
-723 -1789 0 -102 10 -270 18 -320 3 -14 10 -59 16 -100 40 -254 140 -550 268
-790 36 -68 168 -278 204 -325 227 -296 492 -531 793 -701 29 -17 214 -108
255 -126 99 -44 293 -108 403 -135 105 -24 248 -49 342 -60 146 -16 507 -9
630 13 28 4 182 33 215 39 8 2 35 9 60 16 25 7 50 13 56 15 75 14 349 121 468
181 144 73 402 244 496 329 14 12 49 44 78 70 445 398 749 994 817 1604 3 30
8 69 10 85 6 42 6 362 1 405 -3 19 -7 60 -10 90 -4 30 -8 66 -11 80 -2 14 -6
42 -9 63 -55 365 -248 808 -491 1123 -95 123 -102 131 -225 255 -253 255 -508
425 -855 569 -18 8 -102 39 -150 56 -11 4 -24 8 -30 9 -5 2 -41 12 -80 23
-125 37 -254 65 -370 78 -27 3 -74 9 -104 13 -83 13 -405 9 -517 -5z"/>
<path d="M78 8402 l-78 -3 0 -1512 0 -1512 1075 0 c591 1 1078 4 1082 9 4 4 8
140 8 302 l1 294 -722 0 -722 0 1 330 0 329 551 0 c303 0 559 0 569 1 16 0 17
20 17 283 l0 284 -561 -1 c-308 -1 -564 1 -569 4 -4 3 -7 142 -6 310 l1 305
713 2 c393 1 717 4 720 8 12 12 9 565 -3 565 -76 3 -2021 4 -2077 2z"/>
<path d="M8315 8193 c-37 -115 -77 -239 -90 -278 -13 -38 -44 -137 -70 -220
-26 -82 -62 -195 -80 -250 -19 -55 -67 -206 -108 -335 -42 -129 -108 -336
-148 -460 -40 -124 -74 -229 -75 -235 -1 -5 -11 -37 -22 -70 -11 -33 -52 -161
-92 -285 -39 -124 -80 -250 -90 -280 -15 -45 -114 -360 -125 -395 -2 -10 610
-15 618 -5 2 3 20 59 39 125 20 66 62 202 92 303 31 101 56 185 56 188 0 2
222 4 493 4 l493 0 36 -127 c36 -129 95 -332 125 -433 9 -30 19 -57 24 -60 4
-3 175 -5 381 -4 319 0 373 2 371 15 -1 13 -52 179 -140 454 -19 61 -41 130
-48 155 -7 25 -36 117 -64 205 -43 139 -196 628 -290 930 -17 55 -40 127 -51
160 -10 33 -41 132 -69 220 -27 88 -72 232 -100 320 -27 88 -72 232 -100 320
-27 88 -55 179 -62 203 l-12 42 -413 0 -413 0 -66 -207z m488 -856 c43 -144
112 -373 153 -509 41 -136 74 -252 74 -257 0 -8 -100 -11 -315 -11 -338 0
-332 -1 -305 49 5 10 11 29 14 42 3 13 42 143 86 289 45 146 83 272 85 280 2
8 22 76 45 150 23 74 43 140 44 145 11 44 30 94 34 90 3 -3 41 -123 85 -268z"/>
<path d="M10470 6891 c0 -1429 1 -1509 18 -1513 9 -2 143 -3 297 -3 l279 0 0
1218 c0 669 3 1213 7 1209 7 -7 30 -79 133 -422 64 -212 179 -594 218 -720 11
-36 25 -85 33 -110 7 -25 43 -144 80 -265 37 -121 73 -240 80 -265 12 -44 167
-555 185 -615 l10 -30 241 0 c201 1 242 3 249 15 6 12 65 197 74 235 1 6 19
62 39 125 38 123 141 458 356 1160 40 129 78 253 86 275 15 44 58 184 61 200
1 6 13 46 27 90 14 44 46 143 70 220 l44 140 1 -1215 c0 -668 1 -1222 1 -1230
1 -13 46 -15 348 -14 192 1 351 2 356 3 4 0 7 681 7 1511 l0 1510 -553 0 -553
0 -36 -117 c-20 -65 -53 -172 -73 -238 -20 -66 -38 -124 -40 -130 -1 -5 -5
-17 -8 -25 -3 -8 -31 -98 -62 -200 -31 -102 -74 -241 -95 -310 -22 -69 -69
-222 -105 -340 -37 -118 -83 -267 -103 -330 l-35 -115 -15 45 c-14 46 -20 66
-46 155 -7 28 -31 106 -51 175 -89 301 -117 396 -122 415 -3 11 -13 47 -23 80
-10 33 -32 107 -49 165 -17 58 -67 229 -111 380 -44 151 -87 301 -97 333 l-16
57 -554 0 -553 0 0 -1509z"/>
</g>
</svg>
